Patient4_TMGait_0pt7_02_left_11_GRF.mot
version=1
nRows=52
nColumns=19
inDegrees=no
endheader
time	F1x	F1y	F1z	M1x	M1y	M1z	F2x	F2y	F2z	M2x	M2y	M2z	EC1x	EC1y	EC1z	EC2x	EC2y	EC2z
12.22	-23.0015	5.9682	1.566	-3.5398	-5.9188	16.6446	-7.4403	695.8874	-45.6405	254.9939	54.2348	697.928	-0.0592	0.0182	-0.0073	-0.0462	0.0165	0.9585
12.2316	-15.4052	5.0516	1.0729	-2.7843	-4.02	12.3644	-7.4878	703.9431	-49.9834	258.8202	56.8135	702.8616	-0.0592	0.0182	-0.0073	-0.0462	0.0165	0.9585
12.2433	-9.0678	4.3326	0.66455	-2.1529	-2.4385	8.839	-7.3311	713.6045	-53.4851	263.0964	58.6415	708.8227	-0.0592	0.0182	-0.0073	-0.0462	0.0165	0.9585
12.2549	-4.2824	3.8272	0.36598	-1.6811	-1.255	6.1951	-6.9359	724.5789	-56.0078	267.6547	59.6723	715.6197	-0.0592	0.0182	-0.0073	-0.0462	0.0165	0.9585
12.2666	-1.0471	3.5371	0.16866	-1.3715	-0.46526	4.4423	-6.2812	736.346	-57.649	272.3054	60.0155	722.8149	-0.0592	0.0182	-0.0073	-0.0462	0.0165	0.9585
12.2782	0.91515	3.3902	0.058883	-1.1932	-0.0039262	3.3686	-5.38	748.1866	-58.6277	276.8187	59.8638	729.7833	-0.0592	0.0182	-0.0073	-0.0462	0.0165	0.9585
12.2899	1.8618	3.3344	0.02445	-1.1079	0.18494	2.8193	-4.1911	759.2623	-59.1214	280.9435	59.3341	735.7417	-0.0592	0.0182	-0.0073	-0.0462	0.0165	0.9585
12.3015	2.1387	3.2853	0.036843	-1.0664	0.19635	2.5512	-2.6819	768.7639	-59.2892	284.4406	58.5215	739.946	-0.0592	0.0182	-0.0073	-0.0462	0.0165	0.9585
12.3131	1.9491	3.1767	0.086759	-1.022	0.075129	2.4077	-0.79867	775.9864	-59.2169	287.104	57.4496	741.7519	-0.0592	0.0182	-0.0073	-0.0462	0.0165	0.9585
12.3248	1.5305	2.8878	0.16278	-0.92133	-0.12245	2.144	1.4493	780.4462	-58.9646	288.7926	56.1442	740.7526	-0.0592	0.0182	-0.0073	-0.0462	0.0165	0.9585
12.3364	0.98483	2.3382	0.26301	-0.72504	-0.3747	1.6265	4.0414	781.9352	-58.5444	289.4533	54.6005	736.7995	-0.0592	0.0182	-0.0073	-0.0462	0.0165	0.9585
12.3481	0.45112	1.4067	0.37877	-0.38921	-0.64206	0.65549	6.915	780.5857	-57.9636	289.1396	52.8212	730.0894	-0.0592	0.0182	-0.0073	-0.0462	0.0165	0.9585
12.3597	-0.028811	0.033258	0.48822	0.1141	-0.88987	-0.83401	10.0257	776.7638	-57.2607	287.9779	50.8408	721.0456	-0.0592	0.0182	-0.0073	-0.0462	0.0165	0.9585
12.3714	-0.33868	-1.8262	0.57132	0.79884	-1.0612	-2.9174	13.275	770.9723	-56.4953	286.1323	48.7324	710.2312	-0.0592	0.0182	-0.0073	-0.0462	0.0165	0.9585
12.383	-0.43235	-4.0659	0.58828	1.6274	-1.0845	-5.451	16.5825	763.7222	-55.7886	283.7616	46.6256	698.2092	-0.0592	0.0182	-0.0073	-0.0462	0.0165	0.9585
12.3946	-0.15857	-6.443	0.50436	2.5039	-0.86013	-8.1644	19.8297	755.4422	-55.2507	280.9925	44.6513	685.4641	-0.0592	0.0182	-0.0073	-0.0462	0.0165	0.9585
12.4063	0.58629	-8.438	0.25311	3.233	-0.26137	-10.4359	22.9053	746.452	-55.0096	277.9123	42.9607	672.3632	-0.0592	0.0182	-0.0073	-0.0462	0.0165	0.9585
12.4179	1.9939	-9.2027	-0.2295	3.4944	0.85243	-11.3218	25.6766	737.0034	-55.1294	274.5863	41.6612	659.2153	-0.0592	0.0182	-0.0073	-0.0462	0.0165	0.9585
12.4296	4.1799	-7.4609	-1.0205	2.8131	2.6149	-9.3511	28.0109	727.284	-55.6499	271.0616	40.8454	646.2673	-0.0592	0.0182	-0.0073	-0.0462	0.0165	0.9585
12.4412	7.2609	-1.5187	-2.1847	0.55834	5.1342	-2.6156	29.8069	717.4773	-56.5286	267.3916	40.5246	633.7459	-0.0592	0.0182	-0.0073	-0.0462	0.0165	0.9585
12.4529	11.1411	10.6943	-3.7341	-4.0303	8.3867	11.2655	30.9991	707.6803	-57.669	263.6128	40.6484	621.7832	-0.0592	0.0182	-0.0073	-0.0462	0.0165	0.9585
12.4645	15.535	31.3778	-5.6095	-11.7562	12.1788	34.7813	31.5918	697.847	-58.9009	259.7194	41.0864	610.3671	-0.0592	0.0182	-0.0073	-0.0462	0.0165	0.9585
12.4761	19.7006	62.4045	-7.5821	-23.2879	15.9663	70.1003	31.6451	687.6499	-59.9934	255.6122	41.6362	599.2103	-0.0592	0.0182	-0.0073	-0.0462	0.0165	0.9585
12.4878	22.3979	104.5246	-9.2388	-38.8722	18.7983	118.1049	31.295	676.4166	-60.6913	251.0726	42.0495	587.6827	-0.0592	0.0182	-0.0073	-0.0462	0.0165	0.9585
12.4994	21.7535	156.4018	-9.8365	-57.9734	19.1488	177.3525	30.7152	663.1313	-60.7025	245.7643	42.0233	574.835	-0.0592	0.0182	-0.0073	-0.0462	0.0165	0.9585
12.5111	16.3485	214.3226	-8.4869	-79.1652	15.4954	243.6691	30.0735	646.5675	-59.784	239.2778	41.2945	559.5151	-0.0592	0.0182	-0.0073	-0.0462	0.0165	0.9585
12.5227	6.8416	272.7376	-4.1752	-100.3287	6.9398	310.6769	29.4917	625.5367	-57.7297	231.2129	39.6406	540.604	-0.0592	0.0182	-0.0073	-0.0462	0.0165	0.9585
12.5344	-4.4708	325.5596	3.6428	-119.2277	-6.2178	371.1226	29.0635	599.0447	-54.5181	221.2335	37.009	517.1353	-0.0592	0.0182	-0.0073	-0.0462	0.0165	0.9585
12.546	-15.6431	369.9201	13.9075	-134.8671	-22.0151	421.3511	28.8185	566.5751	-50.3025	209.1551	33.5073	488.5845	-0.0592	0.0182	-0.0073	-0.0462	0.0165	0.9585
12.5576	-25.7444	407.0964	25.0109	-147.7995	-38.2384	462.5917	28.7249	528.1559	-45.4073	194.9708	29.4004	454.9161	-0.0592	0.0182	-0.0073	-0.0462	0.0165	0.9585
12.5693	-34.1717	440.2597	35.5919	-159.2825	-53.1394	498.3876	28.6354	484.3323	-40.2108	178.8485	25.0312	416.6093	-0.0592	0.0182	-0.0073	-0.0462	0.0165	0.9585
12.5809	-40.7753	472.3289	44.6144	-170.4763	-65.491	532.0972	28.3427	436.0168	-34.994	161.0964	20.69	374.4819	-0.0592	0.0182	-0.0073	-0.0462	0.0165	0.9585
12.5926	-45.3789	504.9686	51.3733	-182.0536	-74.4736	565.5628	27.5457	384.4801	-29.906	142.1563	16.6024	329.6923	-0.0592	0.0182	-0.0073	-0.0462	0.0165	0.9585
12.6042	-47.8869	538.3245	55.785	-194.092	-79.9839	598.9844	25.9718	331.2404	-25.008	122.5748	12.9222	283.5948	-0.0592	0.0182	-0.0073	-0.0462	0.0165	0.9585
12.6159	-48.3304	571.7074	58.1807	-206.3228	-82.4388	631.5781	23.4098	278.1466	-20.4084	103.0164	9.8269	237.8388	-0.0592	0.0182	-0.0073	-0.0462	0.0165	0.9585
12.6275	-46.9341	604.2148	59.1906	-218.3648	-82.6376	662.4628	19.8553	227.1646	-16.2457	84.2012	7.4471	194.1057	-0.0592	0.0182	-0.0073	-0.0462	0.0165	0.9585
12.6391	-44.0039	635.0989	59.4154	-229.8947	-81.3825	690.9371	15.5173	180.2344	-12.6884	66.8408	5.8609	154.0425	-0.0592	0.0182	-0.0073	-0.0462	0.0165	0.9585
12.6508	-40.037	663.8323	59.3533	-240.6696	-79.4056	716.549	10.9002	138.9041	-9.7835	51.5148	4.936	118.8867	-0.0592	0.0182	-0.0073	-0.0462	0.0165	0.9585
12.6624	-35.4496	689.8434	59.3859	-250.4509	-77.2811	738.8033	6.5328	104.0226	-7.5037	38.5506	4.46	89.2923	-0.0592	0.0182	-0.0073	-0.0462	0.0165	0.9585
12.6741	-30.6653	712.74	59.6305	-259.0763	-75.2919	757.3839	2.8884	75.6515	-5.7158	27.9914	4.1588	65.2341	-0.0592	0.0182	-0.0073	-0.0462	0.0165	0.9585
12.6857	-25.9274	732.3185	60.0327	-266.4738	-73.4774	772.1497	0.13748	53.2771	-4.3006	19.663	3.8715	46.256	-0.0592	0.0182	-0.0073	-0.0462	0.0165	0.9585
12.6974	-21.3348	748.5701	60.3393	-272.6502	-71.6178	783.1931	-1.7087	36.0864	-3.1489	13.2773	3.504	31.6536	-0.0592	0.0182	-0.0073	-0.0462	0.0165	0.9585
12.709	-16.8969	761.4529	60.3399	-277.6022	-69.4981	790.5206	-2.767	23.2202	-2.2031	8.516	3.0453	20.729	-0.0592	0.0182	-0.0073	-0.0462	0.0165	0.9585
12.7206	-12.6603	770.7912	59.8819	-281.2727	-66.9698	794.0473	-3.1541	13.8622	-1.4258	5.0762	2.5019	12.7808	-0.0592	0.0182	-0.0073	-0.0462	0.0165	0.9585
12.7323	-8.6094	776.3775	58.9893	-283.5766	-64.0547	793.6586	-3.0287	7.3756	-0.81559	2.7111	1.9242	7.2653	-0.0592	0.0182	-0.0073	-0.0462	0.0165	0.9585
12.7439	-4.79	778.0592	57.8389	-284.4403	-60.9409	789.314	-2.5633	3.2093	-0.37845	1.2097	1.3785	3.6757	-0.0592	0.0182	-0.0073	-0.0462	0.0165	0.9585
12.7556	-1.1471	775.9756	56.6501	-283.888	-57.8395	781.2172	-1.9904	0.86951	-0.094596	0.37972	0.92913	1.6057	-0.0592	0.0182	-0.0073	-0.0462	0.0165	0.9585
12.7672	2.3546	770.6274	55.6378	-282.0788	-54.9569	769.9555	-1.4355	-0.1774	0.053993	0.0214	0.6076	0.61353	-0.0592	0.0182	-0.0073	-0.0462	0.0165	0.9585
12.7789	5.7483	762.9032	54.8712	-279.3298	-52.3568	756.4399	-0.98985	-0.37689	0.1174	-0.032976	0.39892	0.35483	-0.0592	0.0182	-0.0073	-0.0462	0.0165	0.9585
12.7905	9.0494	754.0122	54.3714	-276.0811	-50.0564	741.9165	-0.6508	-0.09624	0.12053	0.082888	0.28326	0.51963	-0.0592	0.0182	-0.0073	-0.0462	0.0165	0.9585
12.8021	12.2803	745.219	54.0665	-272.8064	-47.9792	727.6449	-0.43591	0.42208	0.099662	0.28024	0.22925	0.92241	-0.0592	0.0182	-0.0073	-0.0462	0.0165	0.9585
12.8138	15.4172	737.6119	53.942	-269.9104	-46.1204	714.6989	-0.299	1.0093	0.065783	0.49789	0.21069	1.4112	-0.0592	0.0182	-0.0073	-0.0462	0.0165	0.9585
